<svg xmlns="http://www.w3.org/2000/svg" width="16.714" height="18" viewBox="0 0 16.714 18"><defs><style>.a{fill:#9d9d9d;}</style></defs><path class="a" d="M17.606,17.425l-4.87-5.252a7.248,7.248,0,0,0,2.012-5.036A7.021,7.021,0,0,0,7.865,0,7.021,7.021,0,0,0,.983,7.137a7.021,7.021,0,0,0,6.882,7.137,6.7,6.7,0,0,0,4.386-1.642L17.133,17.9a.32.32,0,0,0,.463.01A.349.349,0,0,0,17.606,17.425ZM7.865,13.594A6.352,6.352,0,0,1,1.638,7.137,6.352,6.352,0,0,1,7.865.68a6.352,6.352,0,0,1,6.227,6.457A6.352,6.352,0,0,1,7.865,13.594Z" transform="translate(-0.983)"/></svg>